<?xml version="1.0" encoding="utf-8"?>
<!-- Generator: Adobe Illustrator 27.5.0, SVG Export Plug-In . SVG Version: 6.00 Build 0)  -->
<svg version="1.1" id="Layer_1" xmlns="http://www.w3.org/2000/svg" xmlns:xlink="http://www.w3.org/1999/xlink" x="0px" y="0px"
	 viewBox="0 0 432 288" style="enable-background:new 0 0 432 288;" xml:space="preserve">
<g>
	<rect x="0" y="0" style="fill:#454545;" width="432" height="288"/>
	<path style="fill:#CFCFCF;" d="M153.952,227.184v31.234c0.383-0.119,0.789-0.285,0.979-0.314c0.789,0.521,1.444,0.123,1.754,0.582
		c-0.165,1.12,1.855,0.152,1.747,0.066c0.342,0.32,1.398,0.655,1.757,0.783c0.401-1.105,1.688,0.127,1.744-0.224
		c-0.076,1.029,2.19-2.268,2.012-1.438c0,1.395,0.891,2.326,0.891,2.313c0,1.644,2.236-0.373,2.236-0.462
		c0,0.154,1.507,1.226,1.507,0.792c0,1.249,1.544,0.403,1.544,0.892c0,1.293,1.602,2.289,1.602,1.365
		c0,1.537,1.858,0.491,1.858,0.165c0,0.386,1.781,0.22,1.781-1c0-0.952,1.676-1.021,1.676-0.634c0,0.226,1.863,0.158,1.863,0.158
		c0,0.374,1.809,0.507,1.809-0.359c0-0.109,1.312-0.929,1.312-1.197c0-0.259,1.803-0.965,1.803-0.235
		c0-0.177,1.206,0.498,1.206-1.298c0,1.019,1.441-0.837,1.441-0.92c0-0.633,1.636,0.203,1.636-0.511
		c0,1.197,1.746-1.041,1.746-0.767c0-0.782,1.842,1.098,1.842,0.165c0-0.26,1.573,0.132,1.573,0.813
		c0,0.555,1.647,0.804,1.647,0.222c0-0.289,1.534,0.064,1.534,0.739c0-0.019,1.645,1.588,1.645,0.67c0,0.356,1.754,0.82,1.754,0.707
		c0-0.316,1.645-1.323,1.645-1.294c0-1.088,1.887,1.334,1.887,0.993c0,0.381,1.706,0.404,1.706-0.42
		c0-0.438,1.517-1.621,1.517-1.144c0,0.202,1.811,0.482,1.811,0.135c0,0.029,1.519-0.985,1.519-1c0,1.081,1.717-0.277,1.717-0.229
		c0,0.37,1.715-0.343,1.715-0.205c0-0.522,1.614-0.855,1.614-0.649c0-0.221,1.663-1.255,1.663-0.486
		c0-1.085,1.684-1.748,1.684-0.545c0-0.516,1.804,0.726,1.804,0.801c0-0.876,1.734-0.144,1.734-0.202
		c0,0.545,1.768-0.889,1.768-0.294c0,0.56,1.768,0.234,1.768,0.017c0,1.205,1.689,0.397,1.689,0.647
		c0-0.347,1.753-0.252,1.753,0.129c0-0.049,1.817,0.104,1.817-0.209c0-0.208,1.591,0.92,1.591,1.077
		c0-0.404,1.848-0.406,1.848-0.375c0,0.531,1.785,0.909,1.785-0.077c0,0.684,1.665-0.354,1.665,0.632c0,0.184,1.74-0.248,1.74,0.116
		c0-0.293,1.647,1.606,1.647,1.196c0,0.663,1.762,0.532,1.762,0.503c0-0.363,1.783-0.532,1.783-0.853
		c0-0.293,1.735,0.21,1.735-0.307c0,0.041,1.891,1.479,1.891,0.765c0-0.646,1.616-0.939,1.616-1.166
		c0-0.512,0.596-1.557,0.596-1.575c0,0.744,1.47-0.238,1.47-0.892c0-0.391,1.711-0.397,1.711-0.275c0-0.571,1.77-0.49,1.77-0.88
		c0-0.121,1.853-0.524,1.853-0.283c0-0.28,1.642,1.587,1.642,1.846c0,0.055,1.923-0.601,1.923-0.884c0-0.67,1.602-0.272,1.602,1.28
		c0-0.753,1.995-1.857,1.995-0.899c0,0.034,1.709-0.253,1.709,0.621c0,0.233,1.794,0.11,1.794,0.145
		c0-0.176,1.818-0.278,1.818-0.111c0-0.392,1.591,1.668,1.591,1.731c0,0.465,1.861-0.299,1.861-0.59c0-0.088,1.739,0.11,1.739,0.391
		c0-0.182,1.734-0.716,1.734-0.422c0-0.297,1.711,0.314,1.711-0.431c0-0.054,1.588,0.678,1.812,0.96
		c0.117-0.141,1.713,0.204,1.75-0.244c0.495,0.222,1.671,0.062,1.704-0.445c0.15,0.856,1.676,0.104,1.702-0.573
		c0.263,0.115,1.907-1.099,1.705-0.626c0.654-0.86,2.625,0.426,1.781,1.098c0.112-0.148,1.117-0.369,1.619-0.509v-28.3H153.952z"/>
	<path style="fill:#CFCFCF;" d="M7.684,93.904v28.358c0.341-0.176,0.653-0.391,0.744-0.645c1.189-0.011,2.471,0.242,1.651-0.339
		c0.188-0.363,1.294-0.246,1.817-0.201c0.39,0.271,1.342,0.721,1.604,0.614c0.361,0.739,1.303-0.963,1.523-1.27
		c-0.015,0.233,1.551,1.052,1.774,0.849c-0.762-0.37,0.001-0.767,1.637-1.083c-0.364-0.708,0.898,0.259,1.685,0.15
		c0.134,0.735,1.491-0.712,1.766-0.173c0.484-0.517,1.856-1.355,1.764-0.642c0.351,0.171,1.394,0.668,1.779,0.237
		c-0.403,0.338,1.774,1.603,1.774,0.995c0-0.58,1.762-1.34,1.762,0.129c0-1.4,1.752,0.257,1.752,0.245
		c0-0.122,1.812-0.967,1.812-0.751c0,0.862,1.691,1.619,1.691,0.949c0-0.631,1.796-0.142,1.796-0.215
		c0-1.012,1.755-0.417,1.755,0.212c0,0.399,1.911,0.724,1.911-0.476c0-0.234,1.597,0.481,1.597,1.019
		c0,0.249,1.509,1.963,1.509,1.339c0,0.007,1.859,0.465,1.859,0.142c0,0.672,1.782,0.928,1.782,0.725
		c0,0.465,1.845-1.668,1.845-1.508c0,0.142,1.725,0.009,1.725,0.088c0-0.192,1.921,0.068,1.921,0.268
		c0-1.263,0.848-2.461,0.848-1.991c0,1.04,1.601-0.313,1.601-0.607c0,0.431,1.742-0.174,1.742,0.156c0,1.026,1.709-0.36,1.709,0.343
		c0,0.562,1.73,0.014,1.73-0.314c0,0.088,1.682-0.891,1.682-0.596c0-0.545,1.804,0.449,1.804,0.27c0-0.055,1.596-1.303,1.596-1.66
		c0-0.075,1.821,1.464,1.821,0.528c0-0.685,1.77,0.4,1.77-0.032c0-0.381,1.837,1.043,1.837-0.582c0,0.173,1.636,1.475,1.636,1.223
		c0,0.249,1.839,0.686,1.839,1.112c0-0.332,2.156,0.603,2.156-0.086c0,1.241,2.017,1.652,2.017,0.509
		c0,0.419,1.873-0.068,1.873-0.361c0,0.533,1.772,0.171,1.772,0.153c0,0.749,1.803,0.574,1.803,0.643
		c0-0.869,1.738-0.706,1.738-1.057c0,0.222,1.916,1.627,1.916,0.978c0,0.201,1.802,0.033,1.802-0.268c0-1.174,1.737-0.52,1.737-0.61
		c0-0.132,1.585-1.448,1.585-1.345c0-0.227,1.822,0.566,1.822-0.084c0-0.008,2.054,2.195,2.054,1.16
		c0-0.168,1.507-2.379,1.507-1.868c0,0.357,1.774,0.02,1.774-0.495c0-0.504,1.874-0.035,1.874-0.132
		c0-0.709,1.909,0.649,1.909,0.437c0-0.193,1.88,0.151,1.88,0.545c0-0.224,1.825-0.356,1.825-0.659c0-0.142,1.852,0.563,1.852,0.467
		c0-0.188,1.855,0.808,1.855-0.689c0,0.176,1.817,0.315,1.817,1.214c0,0.588,1.895-1.166,1.895-1.27c0-1.37,1.806,0.383,1.806,0.981
		c0-0.934,1.871,0.367,1.871-0.4c0,0.194,1.808,1.533,1.808,0.771c0-0.544,1.761-0.422,1.761-0.303c0-0.389,1.79-0.787,1.79-0.814
		c0-1.876,1.742-0.466,1.742,0.032c0,0.557,1.656,1.829,1.656,1.566c0,1.164,1.776,0.271,1.776-0.569
		c0,0.961,1.771-0.962,1.771-0.493c0,0.404,1.721,0.833,1.721,0.401c0,0.484,1.898,0.094,1.742,0.032
		c-0.115-0.365,2.035,0.021,1.901,0.176c-0.731,0.106,1.556,0.745,1.84,0.531c0.419,0.871,2.226,0.757,1.878,0.167
		c0.294-0.482,2.164,0.673,1.863,0.922c0.437,0.068,1.445,0.229,1.959-0.207c0.07,0.136,0.664-0.139,1.164-0.449V93.904H7.684z"/>
	<path style="fill:#CFCFCF;" d="M155.764,30.378v26.919c0.413,0.198,0.78,0.642,0.812,1.436c-0.017,0.062,1.929-0.535,2.07-0.64
		c-0.353-0.017,2.397-0.418,2.015-0.747c0.126,0.015,1.97-0.312,2.023-0.67c0.553,0.955,2.605,2.066,2.144,0.289
		c0.294,0.561,1.864-0.337,2.032-0.116c-0.115-0.563,2.006-0.31,2.1,0.071c-0.286-0.964,2.005,0.254,2.005-0.862
		c0,0.617,2.217,1.784,2.217,1.452c0-0.864,1.91-3.078,1.91-1.906c0,0.13,2.18,1.711,2.18,1.038c0-0.208,1.686,1.35,1.686-1.104
		c0-0.89,1.786-0.444,1.786,0.407c0,0.243,1.571,1.994,1.571,0.895c0-0.231,2.34-0.861,2.34,0.645c0,1.177,2.352,0.889,2.352,0.961
		c0,0.389,2.221,0.531,2.221,0.774c0-0.317,2.165-1.47,2.165-0.78c0-0.063,2.018-0.058,2.018-1.054c0-0.444,2.106,0.733,2.106-0.146
		c0-0.252,2.082-0.243,2.082-0.772c0,0.757,2.104,1.09,2.104,1.366c0-0.864,2.166-2.762,2.166-1.317c0,0.67,1.91,2.07,1.91,2.017
		c0-1.205,2.115,1.253,2.115-0.242c0-0.411,2.038,0.371,2.038,0.39c0-1.039,1.886,0.618,1.886,1.118c0,1.452,2.217-0.69,2.217-0.434
		c0,0.268,2.06-1.23,2.06,0.339c0,0.743,1.741,3,1.741,1.592c0,0.937,2.05,0.225,2.05,0.369c0-0.485,2.369,0.295,2.369-0.817
		c0,0.434,1.827,0.77,1.827,1.244c0-0.699,2.182,0.774,2.182-0.132c0,0.4,2.074,0.08,2.074,0.252c0-0.114,1.903,0.2,1.903,1.002
		c0-0.506,1.994,0.295,1.994,0.414c0,0.035,1.898,0.522,1.898,0.999c0-0.732,2.018,0.888,2.018,0.376
		c0-0.459,2.035-0.545,2.035,0.27c0-0.122,2.119-0.066,2.119-0.571c0,0.426,2.02,0.018,2.02,0.272c0,0.53,1.989,0.316,1.989,0.936
		c0,0.18,2.044,0.273,2.044,0.363c0,1.076,2.07-1.743,2.07-0.868c0-0.385,2.052,0.664,2.052,0.908c0,0.401,2.027-2.28,2.027-1.014
		c0,0.743,2.019-0.185,2.019-0.418c0-0.94,2.523,0.86,2.523,1.126c0,0.63,2.145-2.585,2.145-1.704c0,1.294,2.236-0.313,2.236-0.544
		c0-0.204,1.928-1.209,1.928-1.36c0,0.63,2.132-0.514,2.132-0.544c0-0.112,2.295-1.194,2.295,0.707c0-0.161,2.031-1.878,2.031-1.861
		c0,0.32,2.155,1.455,2.155,1.106c0,0.146,2.111,0.268,2.111,0.349c0,0.244,2.284,0.007,2.284-0.08c0-0.135,1.872,3.131,1.872,1.664
		c0-0.699,2.081,1.77,2.081,1.315c0-0.127,2.426-1.432,2.536-1.298c0.24-0.32,1.751,0.084,2.008-0.261
		c0.415,0.73,2.175-0.387,2.345-0.693c0.219,2.08,1.813-0.07,2.114-0.958c0.383,0.834,1.088,0.986,1.436,0.878V30.378H155.764z"/>
	<path style="fill:#CFCFCF;" d="M304.221,227.184v31.627c0.315-0.098,0.951,0.039,1.297,0.792c0.272-0.802,1.712-2.743,1.909-0.865
		c0.154-0.277,1.743-1.285,2.118-0.626c0.232-0.312,1.596,0.053,1.813-0.236c0.099,0.121,2.29-1.058,2.29-1.172
		c0-0.411,1.879,1.818,1.879,1.187c0-1.324,1.691,1.625,1.691,1.503c0-0.078,2.062-0.292,2.062-0.072
		c0,0.074,1.906,0.183,1.906,0.315c0-0.315,1.946,0.71,1.946,0.999c0,0.016,1.834-1.535,1.834-1.681
		c0,1.717,2.072,0.739,2.072,0.638c0-0.027,1.925-1.06,1.925-0.491c0-0.136,1.741-1.044,1.741-1.228c0-0.208,2.019-1.66,2.019-0.491
		c0,0.795,1.937-2.107,1.937-1.539c0,0.24,2.279,1.866,2.279,1.016c0-0.211,1.823-1.048,1.823-0.377c0,1.144,1.83-1.278,1.83-0.916
		c0,0.22,1.853,1.167,1.853,0.82c0,0.79,1.869-1.755,1.869-0.784c0,0.081,1.846,0.165,1.846,0.328c0,0.56,1.796,0.367,1.796,0.845
		c0,0.229,1.824-0.139,1.824,0.246c0-0.456,1.914-0.405,1.914-0.515c0,0.736,1.837,0.658,1.837,0.243c0-0.463,1.822,1,1.822,0.339
		c0,0.431,1.714,0.87,1.714,0.902c0,0.107,1.801,0.83,1.801,0.373c0,0.724,1.718,1.008,1.718,0.904c0,0.155,1.872-0.134,1.872,0.228
		c0-0.818,1.97,0.512,1.97-0.119c0,0.428,1.65,0.732,1.65,1.124c0-1.004,2.139-0.299,2.139-0.737c0,0.13,1.852-0.513,1.852,0.333
		c0-1.271,1.572,0.766,1.572,1.438c0,1.417,1.861,0.064,1.861,0.306c0,0.232,2.002-1.703,2.002-0.392
		c0,0.451,1.703,1.948,1.703,1.009c0,0.018,1.84,0.724,1.84,0.353c0-1.35,1.91,0.869,1.91-0.219c0-0.048,1.725,1.217,1.725,1.822
		c0,1.305,1.956-0.409,1.956-1.189c0,0.249,1.9,0.55,1.9,1.233c0-0.478,1.88-0.47,1.88-0.697c0-0.793,1.902,0.27,1.902-0.132
		c0-0.9,1.823-0.895,1.823-0.952c0,0.622,1.955-0.418,1.955-0.704c0,0.219,2.005,0.348,2.005,0.699c0,0.064,2.124-0.195,2.124,0.867
		c0,1.36,2.113,0.791,2.113,0.582c0-0.993,1.419,0.589,1.419,0.808c0,0.768,1.613,1.171,1.613,0.368
		c0-2.215,1.523-0.809,1.523-0.996c0-0.607,1.968,0.82,1.968,0.938c0,1.058,1.724-0.941,1.724-1.721c0-0.3,2.002,0.755,2.002,1.311
		c0-1.008,2.07,0.092,1.811-0.778c0.084,0.343,2,0.572,1.896,0.064c0.152,0.199,1.569-0.611,1.835-0.105
		c-0.417-1.605,1.437-0.602,1.936,0.261c0.047-0.323,1.713-0.619,1.827-0.605c-0.345-0.297,2.138-0.659,1.819-0.674
		c0.128-0.094,1.884-0.634,1.869-0.578c0.029,0.717,0.361,1.118,0.733,1.297v-36.526H304.221z"/>
	<path style="fill:#CFCFCF;" d="M289.106,122.037V93.352H155.419v34.356c0.648-0.763,1.766-0.114,1.921,0.494
		c-0.386-0.857,2.256-1.498,1.998-0.298c0.12,1.168,2.111,0.123,1.988-0.417c0.383,0.078,1.77,0.139,1.982-0.352
		c-0.17,1.087,2.099-0.453,1.907-1.254c0.341,0.375,1.821,0.311,1.977,0.06c-0.255,1.165,2.111,1.238,2.111,0.314
		c0,0.31,2.375-1.71,2.375-1.296c0,0.001,2.174,0.988,2.174,1.567c0,1.052,2.601,0.294,2.601-0.016c0-0.11,2.284,1.203,2.284,0.896
		c0-0.631,1.298,2.624,1.298,2.449c0,0.702,2.081-1.735,2.081-0.894c0-0.874,2.164,1.109,2.164,1.24c0-0.38,1.954-0.876,1.954-0.594
		c0-0.417,1.487-1.432,1.487-2.144c0,0.967,2.083,0.085,2.083-0.142c0-1.047,1.876-1.132,1.876-0.838
		c0,1.065,2.417,0.44,2.417,0.982c0-0.075,1.582-1.322,1.582-1.825c0,0.049,2.084-0.579,2.084-0.137
		c0,0.033,2.228-0.619,2.228,0.346c0,0.582,1.388-1.721,1.388-2.475c0,0.304,2.175,0.063,2.175,0.312
		c0,0.539,2.238-0.651,2.238-0.807c0,0.893,1.189,2.412,1.189,2.13c0-0.045,2.008-0.609,2.008,0.183
		c0-0.299,1.639,0.587,1.639,1.391c0-0.746,1.99,0.308,1.99-0.182c0,1.02,1.518-3.198,1.518-1.776c0-0.048,2.101,0.682,2.101,0.64
		c0,0.513,1.652-2.081,1.652-1.518c0,0.507,2.225,1.605,2.225,1.396c0,0.143,1.676-3.003,1.676-2.06
		c0,1.312,1.988-0.848,1.988,0.137c0-0.343,1.968,0.775,1.968,0.108c0,0.216,1.983,0.742,1.983,0.421
		c0,0.563,2.122-1.843,2.122-1.071c0-0.567,2.163-0.654,2.163-0.5c0-0.577,2.293,1.1,2.293,1.326c0-0.069,2.177-1.391,2.177-0.304
		c0,0.79,2.141-1.554,2.141-0.8c0,0.347,2.259,1.994,2.259,0.858c0,1.638,2.065-1.438,2.065-1.876c0-0.795,2.107,0.335,2.107,0.804
		c0-1.018,2.077-1.362,2.077,0.436c0,0.706,1.984-1.144,1.984-1.033c0,0.019,2.079,0.145,2.079,0.608
		c0,0.058,2.032,0.799,2.032-0.225c0,0.543,2.015-0.714,2.015-1.407c0-0.025,2.064,1.26,2.064,1.049
		c0,0.662,2.025,0.259,2.025,0.821c0-0.71,2.033-0.026,2.033-0.134c0-0.697,2.038-0.656,2.038-0.062
		c0-0.561,2.001-0.373,2.001,0.383c0,0.329,2.099-1.198,2.099-0.395c0,0.186,2.001-0.73,2.001,0.459
		c0,0.092,2.092,0.272,2.092-0.074c0,0.091,2.016-0.013,2.016,0.336c0-2.147,2.098,0.095,2.098-0.401
		c0,0.406,1.887,1.959,1.887,1.809c0,1.345,1.964-0.981,2.164-1.619c0.03-1.189,2.787,1.365,2.19,1.456
		c0.416-0.302,1.531,0.087,2.109-0.585c-0.504,0.065,1.876-1.186,2.002-0.928c0.359-0.452,2.077,0.149,2.119-0.265
		C287.98,122.287,288.518,122.131,289.106,122.037z"/>
	<path style="fill:#CFCFCF;" d="M9.817,259.63v-32.469h133.686v26.798c-0.648,0.763-1.766,0.114-1.921-0.494
		c0.386,0.857-2.256,1.498-1.998,0.298c-0.12-1.168-2.11-0.123-1.988,0.417c-0.383-0.078-1.77-0.139-1.982,0.352
		c0.17-1.087-2.099,0.453-1.907,1.254c-0.341-0.375-1.821-0.311-1.977-0.06c0.255-1.165-2.111-1.238-2.111-0.314
		c0-0.31-2.375,1.71-2.375,1.296c0-0.001-2.174-0.988-2.174-1.568c0-1.052-2.601-0.294-2.601,0.016c0,0.11-2.284-1.203-2.284-0.896
		c0,0.631-1.298-2.624-1.298-2.449c0-0.702-2.081,1.735-2.081,0.894c0,0.874-2.164-1.109-2.164-1.24c0,0.38-1.954,0.876-1.954,0.594
		c0,0.417-1.487,1.432-1.487,2.144c0-0.967-2.083-0.085-2.083,0.141c0,1.046-1.876,1.132-1.876,0.838
		c0-1.065-2.417-0.44-2.417-0.982c0,0.075-1.582,1.322-1.582,1.824c0-0.049-2.084,0.579-2.084,0.137
		c0-0.033-2.228,0.619-2.228-0.346c0-0.582-1.388,1.722-1.388,2.475c0-0.304-2.175-0.063-2.175-0.312
		c0-0.539-2.238,0.651-2.238,0.807c0-0.893-1.189-2.412-1.189-2.13c0,0.045-2.008,0.609-2.008-0.183
		c0,0.299-1.639-0.587-1.639-1.391c0,0.747-1.99-0.308-1.99,0.182c0-1.02-1.518,3.198-1.518,1.776c0,0.048-2.101-0.682-2.101-0.64
		c0-0.513-1.652,2.081-1.652,1.518c0-0.507-2.225-1.605-2.225-1.396c0-0.143-1.676,3.003-1.676,2.06
		c0-1.312-1.988,0.848-1.988-0.137c0,0.343-1.968-0.776-1.968-0.108c0-0.216-1.983-0.742-1.983-0.421
		c0-0.563-2.122,1.843-2.122,1.071c0,0.567-2.163,0.654-2.163,0.5c0,0.577-2.293-1.1-2.293-1.326c0,0.069-2.177,1.391-2.177,0.304
		c0-0.79-2.141,1.554-2.141,0.8c0-0.347-2.259-1.994-2.259-0.858c0-1.638-2.065,1.438-2.065,1.876c0,0.795-2.107-0.335-2.107-0.804
		c0,1.018-2.077,1.362-2.077-0.436c0-0.706-1.984,1.145-1.984,1.033c0-0.019-2.079-0.145-2.079-0.608
		c0-0.058-2.032-0.799-2.032,0.225c0-0.543-2.015,0.714-2.015,1.407c0,0.025-2.064-1.26-2.064-1.049
		c0-0.662-2.026-0.259-2.026-0.821c0,0.71-2.033,0.026-2.033,0.134c0,0.698-2.038,0.656-2.038,0.062
		c0,0.561-2.001,0.373-2.001-0.383c0-0.329-2.099,1.198-2.099,0.395c0-0.186-2.001,0.73-2.001-0.459
		c0-0.092-2.092-0.272-2.092,0.074c0-0.091-2.016,0.013-2.016-0.336c0,2.147-2.098-0.095-2.098,0.401
		c0-0.406-1.887-1.959-1.887-1.809c0-1.345-1.964,0.981-2.164,1.619c-0.03,1.189-2.787-1.365-2.19-1.456
		c-0.416,0.302-1.531-0.087-2.11,0.585c0.504-0.065-1.877,1.186-2.002,0.928c-0.359,0.452-2.077-0.15-2.119,0.265
		C10.942,259.38,10.405,259.536,9.817,259.63z"/>
	<polygon style="fill:#CFCFCF;" points="141.604,160.189 10.13,160.189 10.13,194.16 10.809,194.606 12.62,194.262 14.057,192.899 
		15.895,192.564 17.55,192.069 19.314,193.124 20.929,192.71 22.611,191.933 24.202,193.093 25.875,192.538 27.506,192.413 
		29.149,192.49 30.556,191.677 32.185,191.777 33.618,190.902 35.322,192.048 36.831,191.533 38.631,191.522 40.221,192.319 
		41.485,193.577 43.142,194.118 44.85,194.604 46.631,194.671 48.419,194.398 50.24,194.091 52.043,194.773 53.692,193.926 
		55.561,194.297 57.189,193.539 58.806,192.815 60.464,192.242 62.125,191.661 63.831,191.212 65.767,191.881 67.389,191.139 
		68.935,190.565 70.56,190.535 72.104,189.945 73.747,190.087 75.343,189.87 76.969,190.461 78.532,190.26 80.133,190.008 
		81.804,190.743 83.691,191.151 85.31,192.213 87.239,191.659 88.917,193.239 90.735,193.007 92.411,192.631 93.995,193.102 
		95.65,192.515 97.26,192.396 98.861,192.646 100.484,193.289 102.133,193.804 103.685,192.556 105.365,193.239 107.016,193.356 
		108.548,192.493 110.058,191.633 111.835,192.519 113.489,192.52 114.604,190.472 116.308,190.751 117.94,191.556 119.4,191.284 
		121.175,190.667 122.426,192.126 123.87,192.982 125.726,192.829 127.086,193.927 129.002,193.512 130.296,194.907 
		131.941,195.246 133.665,195.009 135.271,195.563 136.992,195.176 138.759,195.574 140.491,195.768 141.604,195.625 
		141.604,162.786 141.6,162.771 141.604,162.758 	"/>
	<polygon style="fill:#CFCFCF;" points="156.092,160.185 156.092,198.65 156.368,198.686 157.762,198.465 159.161,198.48 
		160.516,198.19 162.215,198.567 162.941,197.111 164.17,197.137 165.724,197.313 167.493,197.121 169.05,196.779 170.53,197.062 
		172.061,196.728 173.492,197.864 175.045,196.879 176.525,197.464 178.023,198.066 179.537,198.268 181.044,197.952 
		182.514,196.881 184.033,197.279 185.573,197.833 187.071,197.615 188.608,197.871 189.959,197.127 191.374,197.111 
		192.798,196.617 194.181,196.641 195.585,196.855 196.955,196.598 197.731,195.557 198.651,194.726 199.774,193.915 
		201.691,194.342 203.148,193.842 204.594,192.691 206.028,192.356 207.552,192.411 208.665,191.699 209.765,191.034 
		210.995,190.766 212.673,190.501 214.166,189.785 215.586,188.953 217.136,188.171 218.656,189.095 220.043,188.574 
		221.486,188.838 222.897,188.607 224.314,188.94 225.775,187.752 227.145,188.639 228.56,188.72 230.232,190.317 232.047,189.22 
		233.779,190.06 235.044,189.486 236.331,189.375 237.65,190.051 238.893,190.033 240.411,189.734 242.16,189.343 243.579,190.119 
		244.923,190.943 246.24,191.756 247.081,193.322 248.494,193.995 250.236,193.784 251.302,195.149 252.766,195.236 
		254.247,194.894 255.608,195.822 257.061,195.299 258.495,196.087 259.916,195.443 261.345,195.413 262.794,195.847 
		264.209,195.601 265.605,194.774 267.043,195.791 268.431,195.746 269.82,194.588 271.211,195.287 272.598,194.84 273.98,194.414 
		275.399,195.78 276.791,195.532 278.151,194.803 279.53,194.655 281.096,194.677 282.515,194.042 284.11,193.953 285.386,192.919 
		286.777,192.594 288.204,193.139 289.382,193.113 289.382,160.185 	"/>
	<polygon style="fill:#CFCFCF;" points="300.872,93.427 300.872,117.746 302.145,117.911 303.262,116.477 305.226,116.596 
		305.789,115.02 306.607,113.546 308.062,113.928 309.319,112.849 310.547,113.817 311.954,114.131 313.24,113.431 314.568,112.905 
		316.069,113.359 317.446,113.199 318.737,112.265 320.132,112.045 321.547,112.264 322.954,111.994 324.405,111.561 
		325.884,112.029 327.375,112.346 328.862,112.678 330.458,112.135 331.975,112.372 333.49,112.668 334.896,113.4 336.284,114.066 
		337.54,114.573 338.895,114.885 339.731,116.264 341.323,115.669 342.483,116.506 343.834,117.251 345.45,116.361 346.937,116.645 
		347.781,118.456 349.192,118.755 350.527,119.356 351.462,120.549 352.975,120.922 354.396,121.083 355.57,122.325 
		357.015,122.958 358.523,122.204 359.969,122.446 361.461,122.694 362.604,123.661 363.515,124.979 365.241,124.708 
		366.195,126.049 367.742,126.05 369.166,126.317 370.506,126.859 371.968,126.921 373.12,128.499 374.792,127.394 376.059,128.718 
		377.619,127.909 379.043,128.141 380.418,129.181 381.926,128.266 383.353,128.766 384.802,128.865 386.259,128.374 
		387.704,129.258 389.157,128.787 390.612,129.3 392.057,128.295 393.51,128.436 394.913,129.025 396.327,129.384 397.699,128.695 
		399.071,128.331 400.526,128.921 401.809,127.846 403.348,128.756 404.701,128.298 406.098,128.085 407.201,126.745 
		408.66,126.496 410.297,127.193 411.716,126.95 413.172,126.969 414.486,125.767 415.958,125.823 417.449,126.303 418.853,125.384 
		420.326,125.752 421.775,125.562 421.996,125.511 421.996,93.427 	"/>
	<polygon style="fill:#CFCFCF;" points="301.628,160.364 301.628,191.631 301.826,191.784 303.324,191.817 304.703,190.794 
		306.289,191.663 307.683,191.246 308.949,190.013 310.576,190.783 312.082,190.761 313.631,190.412 315.088,191.129 
		316.56,191.574 318.158,191.21 319.694,191.258 321.315,192.075 323.002,192.004 324.609,191.088 326.159,191.016 327.635,191.426 
		328.807,192.498 330.278,192.407 331.655,192.814 333.072,193.007 334.496,193.129 335.937,192.822 337.34,193.294 
		338.724,193.695 340.29,193.459 341.848,193.264 343.401,193.025 344.922,193.118 346.434,193.376 347.949,193.788 
		349.398,193.711 350.828,193.372 352.291,193.398 353.785,193.576 355.138,192.594 356.735,193.717 358.098,192.58 
		359.682,193.318 360.76,191.689 362.605,192.485 363.353,190.631 365.081,190.79 366.337,190.037 367.269,188.728 368.586,188.062 
		370.143,187.904 371.242,186.666 372.796,186.626 374.221,185.982 375.664,185.913 377.337,186.726 378.798,186.393 
		380.052,185.353 381.307,184.327 382.893,184.532 384.481,184.949 385.786,183.856 387.323,184.6 388.845,183.428 390.379,184.163 
		391.93,184.201 393.592,183.525 395.096,184.169 396.295,185.577 397.499,186.137 398.695,187.057 397.605,188.239 
		398.799,188.779 400.211,188.796 401.544,189.142 402.602,190.863 404.418,189.857 405.389,191.191 407.006,191.134 
		408.194,191.792 409.455,192.168 410.729,192.934 412.104,192.56 413.417,192.85 414.747,192.756 416.082,193.387 417.749,193.115 
		419.402,192.846 421.004,193.238 423.014,193.047 423.713,193.474 423.713,160.364 	"/>
	<polygon style="fill:#CFCFCF;" points="419.257,30.378 419.257,51.981 419.01,51.948 417.76,52.146 416.507,52.133 415.293,52.393 
		413.77,52.055 413.119,53.36 412.018,53.336 410.625,53.179 409.04,53.351 407.644,53.657 406.319,53.404 404.946,53.703 
		403.664,52.685 402.273,53.568 400.946,53.043 399.603,52.504 398.247,52.323 396.896,52.606 395.579,53.566 394.218,53.209 
		392.838,52.713 391.495,52.909 390.118,52.679 388.907,53.346 387.639,53.36 386.363,53.803 385.124,53.781 383.866,53.59 
		382.638,53.82 381.942,54.753 381.118,55.497 380.112,56.224 378.393,55.841 377.087,56.29 375.792,57.321 374.507,57.621 
		373.141,57.572 372.144,58.21 371.158,58.806 370.055,59.047 368.551,59.284 367.214,59.925 365.941,60.671 364.552,61.371 
		363.19,60.543 361.947,61.011 360.654,60.774 359.389,60.981 358.12,60.682 356.81,61.747 355.583,60.952 354.314,60.88 
		352.816,59.449 351.189,60.431 349.638,59.678 348.504,60.193 347.35,60.292 346.169,59.687 345.054,59.703 343.694,59.971 
		342.127,60.321 340.855,59.626 339.651,58.887 338.47,58.159 337.717,56.755 336.451,56.152 334.889,56.341 333.935,55.118 
		332.623,55.04 331.295,55.347 330.076,54.515 328.773,54.984 327.488,54.277 326.215,54.855 324.935,54.881 323.635,54.492 
		322.368,54.713 321.117,55.454 319.828,54.542 318.584,54.583 317.339,55.621 316.093,54.995 314.85,55.395 313.612,55.777 
		312.34,54.552 311.092,54.775 309.874,55.428 308.637,55.561 307.234,55.541 305.963,56.11 304.533,56.19 303.389,57.117 
		302.143,57.408 300.865,56.919 299.809,56.943 299.809,30.378 	"/>
	<polygon style="fill:#CFCFCF;" points="9.785,30.378 9.785,53.052 10.555,53.522 12.765,53.312 14.528,53.742 16.347,53.446 
		18.18,53.147 19.648,53.842 21.111,53.739 22.556,54.057 24.069,53.645 25.47,54.488 26.857,54.902 28.164,55.626 29.942,55.563 
		31.011,57.03 33.008,55.924 34.173,57.818 35.639,58.198 37.192,58.217 38.505,58.811 37.307,60.111 38.622,61.123 39.946,61.738 
		41.265,63.288 42.92,63.996 44.748,63.253 46.454,63.294 48.141,64.103 49.815,62.813 51.507,63.632 52.942,62.43 54.689,62.888 
		56.433,63.114 57.814,61.986 59.194,60.841 60.801,60.475 62.642,61.37 64.228,61.293 65.796,60.585 67.505,60.541 68.715,59.18 
		70.427,59.006 71.877,58.273 72.901,56.833 74.283,56.004 76.185,56.179 77.006,54.14 79.036,55.015 80.222,53.223 81.964,54.036 
		83.464,52.784 85.221,54.019 86.709,52.94 88.353,53.136 89.963,53.164 91.535,52.791 93.129,52.707 94.796,53.16 96.459,53.443 
		98.132,53.546 99.841,53.283 101.554,53.068 103.277,52.808 104.799,53.25 106.343,53.769 107.928,53.431 109.494,53.565 
		111.052,53.777 112.567,54.225 114.185,54.126 115.475,55.305 117.098,55.756 118.803,55.676 120.572,54.669 122.428,54.591 
		124.21,55.49 125.9,55.542 127.658,55.142 129.278,55.631 130.88,56.421 132.585,56.036 134.241,56.013 136.03,56.859 
		137.424,55.503 138.957,55.044 140.702,56 142.218,54.874 143.866,54.911 144.085,55.079 144.085,30.378 	"/>
	<path style="fill:#FFFFFF;" d="M153.952,225.059v31.234c0.383-0.119,0.789-0.285,0.979-0.314c0.789,0.521,1.444,0.123,1.754,0.582
		c-0.165,1.12,1.855,0.152,1.747,0.066c0.342,0.32,1.398,0.655,1.757,0.783c0.401-1.105,1.688,0.127,1.744-0.224
		c-0.076,1.029,2.19-2.268,2.012-1.438c0,1.395,0.891,2.326,0.891,2.313c0,1.644,2.236-0.373,2.236-0.462
		c0,0.154,1.507,1.226,1.507,0.792c0,1.249,1.544,0.403,1.544,0.892c0,1.293,1.602,2.289,1.602,1.365
		c0,1.537,1.858,0.491,1.858,0.165c0,0.386,1.781,0.219,1.781-1c0-0.952,1.676-1.021,1.676-0.634c0,0.226,1.863,0.158,1.863,0.158
		c0,0.374,1.809,0.507,1.809-0.359c0-0.109,1.312-0.929,1.312-1.197c0-0.259,1.803-0.965,1.803-0.235
		c0-0.177,1.206,0.498,1.206-1.298c0,1.019,1.441-0.837,1.441-0.92c0-0.633,1.636,0.203,1.636-0.511
		c0,1.197,1.746-1.041,1.746-0.767c0-0.782,1.842,1.098,1.842,0.165c0-0.26,1.573,0.132,1.573,0.813
		c0,0.555,1.647,0.804,1.647,0.222c0-0.289,1.534,0.064,1.534,0.739c0-0.019,1.645,1.588,1.645,0.67
		c0,0.356,1.754,0.821,1.754,0.707c0-0.316,1.645-1.323,1.645-1.294c0-1.088,1.887,1.334,1.887,0.993
		c0,0.381,1.706,0.404,1.706-0.42c0-0.438,1.517-1.621,1.517-1.144c0,0.202,1.811,0.482,1.811,0.135c0,0.028,1.519-0.985,1.519-1
		c0,1.081,1.717-0.277,1.717-0.229c0,0.37,1.715-0.343,1.715-0.205c0-0.522,1.614-0.855,1.614-0.649
		c0-0.221,1.663-1.255,1.663-0.486c0-1.085,1.684-1.748,1.684-0.545c0-0.516,1.804,0.726,1.804,0.801
		c0-0.876,1.734-0.144,1.734-0.202c0,0.545,1.768-0.889,1.768-0.294c0,0.56,1.768,0.234,1.768,0.017
		c0,1.205,1.689,0.397,1.689,0.647c0-0.347,1.753-0.252,1.753,0.129c0-0.049,1.817,0.104,1.817-0.208
		c0-0.208,1.591,0.92,1.591,1.077c0-0.404,1.848-0.406,1.848-0.375c0,0.532,1.785,0.909,1.785-0.077
		c0,0.684,1.665-0.354,1.665,0.632c0,0.184,1.74-0.248,1.74,0.116c0-0.293,1.647,1.606,1.647,1.196c0,0.663,1.762,0.532,1.762,0.503
		c0-0.363,1.783-0.532,1.783-0.853c0-0.293,1.735,0.21,1.735-0.307c0,0.041,1.891,1.479,1.891,0.765
		c0-0.646,1.616-0.939,1.616-1.166c0-0.512,0.596-1.557,0.596-1.575c0,0.744,1.47-0.238,1.47-0.892c0-0.39,1.711-0.397,1.711-0.275
		c0-0.571,1.77-0.49,1.77-0.879c0-0.121,1.853-0.524,1.853-0.283c0-0.28,1.642,1.587,1.642,1.846c0,0.055,1.923-0.601,1.923-0.884
		c0-0.67,1.602-0.272,1.602,1.28c0-0.753,1.995-1.857,1.995-0.899c0,0.034,1.709-0.253,1.709,0.621c0,0.232,1.794,0.11,1.794,0.145
		c0-0.176,1.818-0.278,1.818-0.111c0-0.392,1.591,1.668,1.591,1.731c0,0.465,1.861-0.299,1.861-0.59c0-0.087,1.739,0.11,1.739,0.391
		c0-0.182,1.734-0.716,1.734-0.422c0-0.297,1.711,0.314,1.711-0.431c0-0.054,1.588,0.679,1.812,0.96
		c0.117-0.141,1.713,0.204,1.75-0.244c0.495,0.222,1.671,0.062,1.704-0.445c0.15,0.856,1.676,0.104,1.702-0.573
		c0.263,0.115,1.907-1.099,1.705-0.626c0.654-0.86,2.625,0.426,1.781,1.098c0.112-0.148,1.117-0.369,1.619-0.509v-28.3H153.952z"/>
	<path style="fill:#FFFFFF;" d="M7.684,91.777v28.358c0.341-0.176,0.653-0.391,0.744-0.645c1.189-0.011,2.471,0.242,1.651-0.338
		c0.188-0.363,1.294-0.246,1.817-0.201c0.39,0.271,1.342,0.721,1.604,0.614c0.361,0.739,1.303-0.963,1.523-1.27
		c-0.015,0.233,1.551,1.052,1.774,0.849c-0.762-0.37,0.001-0.767,1.637-1.083c-0.364-0.708,0.898,0.259,1.685,0.15
		c0.134,0.735,1.491-0.712,1.766-0.173c0.484-0.517,1.856-1.355,1.764-0.642c0.351,0.171,1.394,0.668,1.779,0.237
		c-0.403,0.338,1.774,1.603,1.774,0.995c0-0.58,1.762-1.34,1.762,0.129c0-1.4,1.752,0.257,1.752,0.245
		c0-0.122,1.812-0.967,1.812-0.751c0,0.862,1.691,1.619,1.691,0.949c0-0.631,1.796-0.142,1.796-0.215
		c0-1.012,1.755-0.417,1.755,0.212c0,0.399,1.911,0.724,1.911-0.476c0-0.234,1.597,0.481,1.597,1.018
		c0,0.249,1.509,1.963,1.509,1.339c0,0.007,1.859,0.465,1.859,0.142c0,0.672,1.782,0.928,1.782,0.725
		c0,0.465,1.845-1.668,1.845-1.508c0,0.142,1.725,0.009,1.725,0.088c0-0.192,1.921,0.068,1.921,0.268
		c0-1.263,0.848-2.461,0.848-1.991c0,1.04,1.601-0.313,1.601-0.607c0,0.431,1.742-0.174,1.742,0.156c0,1.026,1.709-0.36,1.709,0.343
		c0,0.562,1.73,0.014,1.73-0.314c0,0.088,1.682-0.891,1.682-0.596c0-0.545,1.804,0.449,1.804,0.27c0-0.055,1.596-1.304,1.596-1.66
		c0-0.075,1.821,1.464,1.821,0.528c0-0.685,1.77,0.4,1.77-0.032c0-0.381,1.837,1.043,1.837-0.582c0,0.173,1.636,1.475,1.636,1.223
		c0,0.249,1.839,0.686,1.839,1.112c0-0.332,2.156,0.603,2.156-0.086c0,1.241,2.017,1.652,2.017,0.509
		c0,0.419,1.873-0.068,1.873-0.361c0,0.533,1.772,0.171,1.772,0.153c0,0.749,1.803,0.574,1.803,0.643
		c0-0.869,1.738-0.706,1.738-1.057c0,0.222,1.916,1.627,1.916,0.978c0,0.201,1.802,0.033,1.802-0.268c0-1.174,1.737-0.52,1.737-0.61
		c0-0.132,1.585-1.448,1.585-1.345c0-0.227,1.822,0.566,1.822-0.084c0-0.008,2.054,2.195,2.054,1.16
		c0-0.168,1.507-2.379,1.507-1.868c0,0.358,1.774,0.02,1.774-0.495c0-0.504,1.874-0.035,1.874-0.132
		c0-0.709,1.909,0.649,1.909,0.437c0-0.193,1.88,0.151,1.88,0.545c0-0.224,1.825-0.356,1.825-0.659c0-0.142,1.852,0.563,1.852,0.467
		c0-0.188,1.855,0.808,1.855-0.689c0,0.176,1.817,0.315,1.817,1.214c0,0.588,1.895-1.166,1.895-1.271
		c0-1.37,1.806,0.383,1.806,0.981c0-0.934,1.871,0.367,1.871-0.4c0,0.194,1.808,1.532,1.808,0.771c0-0.544,1.761-0.422,1.761-0.303
		c0-0.389,1.79-0.787,1.79-0.814c0-1.876,1.742-0.466,1.742,0.032c0,0.557,1.656,1.829,1.656,1.566c0,1.164,1.776,0.271,1.776-0.569
		c0,0.961,1.771-0.962,1.771-0.493c0,0.405,1.721,0.833,1.721,0.401c0,0.484,1.898,0.094,1.742,0.032
		c-0.115-0.365,2.035,0.021,1.901,0.176c-0.731,0.106,1.556,0.745,1.84,0.531c0.419,0.871,2.226,0.757,1.878,0.167
		c0.294-0.482,2.164,0.673,1.863,0.922c0.437,0.068,1.445,0.229,1.959-0.207c0.07,0.136,0.664-0.139,1.164-0.449V91.777H7.684z"/>
	<path style="fill:#FFFFFF;" d="M155.764,28.252v26.919c0.413,0.198,0.78,0.642,0.812,1.436c-0.017,0.062,1.929-0.535,2.07-0.64
		c-0.353-0.017,2.397-0.418,2.015-0.747c0.126,0.015,1.97-0.312,2.023-0.67c0.553,0.955,2.605,2.067,2.144,0.289
		c0.294,0.561,1.864-0.337,2.032-0.116c-0.115-0.563,2.006-0.31,2.1,0.071c-0.286-0.964,2.005,0.254,2.005-0.862
		c0,0.617,2.217,1.784,2.217,1.452c0-0.864,1.91-3.078,1.91-1.906c0,0.13,2.18,1.711,2.18,1.038c0-0.208,1.686,1.35,1.686-1.103
		c0-0.89,1.786-0.444,1.786,0.407c0,0.243,1.571,1.995,1.571,0.895c0-0.231,2.34-0.861,2.34,0.645c0,1.177,2.352,0.889,2.352,0.961
		c0,0.389,2.221,0.531,2.221,0.774c0-0.317,2.165-1.47,2.165-0.78c0-0.063,2.018-0.058,2.018-1.054c0-0.444,2.106,0.733,2.106-0.146
		c0-0.252,2.082-0.243,2.082-0.772c0,0.757,2.104,1.09,2.104,1.366c0-0.864,2.166-2.762,2.166-1.317c0,0.669,1.91,2.07,1.91,2.017
		c0-1.205,2.115,1.253,2.115-0.242c0-0.411,2.038,0.371,2.038,0.39c0-1.039,1.886,0.618,1.886,1.117c0,1.452,2.217-0.69,2.217-0.434
		c0,0.268,2.06-1.23,2.06,0.339c0,0.743,1.741,3,1.741,1.592c0,0.937,2.05,0.225,2.05,0.369c0-0.485,2.369,0.295,2.369-0.817
		c0,0.434,1.827,0.77,1.827,1.244c0-0.699,2.182,0.774,2.182-0.132c0,0.4,2.074,0.08,2.074,0.252c0-0.114,1.903,0.2,1.903,1.002
		c0-0.506,1.994,0.295,1.994,0.414c0,0.035,1.898,0.522,1.898,0.999c0-0.732,2.018,0.889,2.018,0.376
		c0-0.458,2.035-0.545,2.035,0.27c0-0.122,2.119-0.066,2.119-0.571c0,0.426,2.02,0.018,2.02,0.272c0,0.53,1.989,0.316,1.989,0.936
		c0,0.18,2.044,0.273,2.044,0.363c0,1.076,2.07-1.743,2.07-0.868c0-0.385,2.052,0.664,2.052,0.908c0,0.401,2.027-2.28,2.027-1.014
		c0,0.743,2.019-0.185,2.019-0.418c0-0.94,2.523,0.86,2.523,1.126c0,0.63,2.145-2.585,2.145-1.704c0,1.294,2.236-0.313,2.236-0.544
		c0-0.204,1.928-1.209,1.928-1.36c0,0.63,2.132-0.514,2.132-0.544c0-0.112,2.295-1.194,2.295,0.707c0-0.161,2.031-1.878,2.031-1.861
		c0,0.32,2.155,1.455,2.155,1.106c0,0.146,2.111,0.268,2.111,0.349c0,0.244,2.284,0.007,2.284-0.08c0-0.135,1.872,3.131,1.872,1.664
		c0-0.699,2.081,1.77,2.081,1.315c0-0.126,2.426-1.432,2.536-1.298c0.24-0.32,1.751,0.084,2.008-0.261
		c0.415,0.73,2.175-0.387,2.345-0.693c0.219,2.08,1.813-0.07,2.114-0.958c0.383,0.834,1.088,0.986,1.436,0.878V28.252H155.764z"/>
	<path style="fill:#FFFFFF;" d="M304.221,225.059v31.627c0.315-0.098,0.951,0.039,1.297,0.793c0.272-0.802,1.712-2.743,1.909-0.865
		c0.154-0.277,1.743-1.285,2.118-0.626c0.232-0.312,1.596,0.053,1.813-0.236c0.099,0.121,2.29-1.058,2.29-1.172
		c0-0.411,1.879,1.818,1.879,1.187c0-1.324,1.691,1.625,1.691,1.502c0-0.078,2.062-0.292,2.062-0.072
		c0,0.074,1.906,0.183,1.906,0.315c0-0.315,1.946,0.71,1.946,0.999c0,0.016,1.834-1.535,1.834-1.681
		c0,1.716,2.072,0.739,2.072,0.638c0-0.027,1.925-1.06,1.925-0.491c0-0.136,1.741-1.044,1.741-1.228c0-0.208,2.019-1.66,2.019-0.491
		c0,0.795,1.937-2.107,1.937-1.539c0,0.24,2.279,1.866,2.279,1.016c0-0.211,1.823-1.048,1.823-0.377c0,1.144,1.83-1.278,1.83-0.915
		c0,0.22,1.853,1.167,1.853,0.82c0,0.79,1.869-1.755,1.869-0.784c0,0.081,1.846,0.165,1.846,0.328c0,0.56,1.796,0.367,1.796,0.845
		c0,0.229,1.824-0.139,1.824,0.246c0-0.456,1.914-0.405,1.914-0.515c0,0.736,1.837,0.658,1.837,0.244c0-0.463,1.822,1,1.822,0.339
		c0,0.431,1.714,0.87,1.714,0.902c0,0.107,1.801,0.83,1.801,0.373c0,0.724,1.718,1.008,1.718,0.905c0,0.155,1.872-0.134,1.872,0.228
		c0-0.819,1.97,0.512,1.97-0.119c0,0.428,1.65,0.732,1.65,1.124c0-1.004,2.139-0.299,2.139-0.737c0,0.13,1.852-0.513,1.852,0.333
		c0-1.271,1.572,0.766,1.572,1.438c0,1.417,1.861,0.064,1.861,0.306c0,0.232,2.002-1.703,2.002-0.392
		c0,0.451,1.703,1.948,1.703,1.009c0,0.018,1.84,0.724,1.84,0.353c0-1.35,1.91,0.869,1.91-0.219c0-0.048,1.725,1.217,1.725,1.821
		c0,1.304,1.956-0.409,1.956-1.189c0,0.249,1.9,0.55,1.9,1.233c0-0.478,1.88-0.47,1.88-0.697c0-0.793,1.902,0.27,1.902-0.132
		c0-0.9,1.823-0.895,1.823-0.952c0,0.622,1.955-0.418,1.955-0.704c0,0.219,2.005,0.348,2.005,0.699c0,0.065,2.124-0.195,2.124,0.867
		c0,1.36,2.113,0.791,2.113,0.582c0-0.992,1.419,0.589,1.419,0.808c0,0.768,1.613,1.171,1.613,0.368
		c0-2.215,1.523-0.809,1.523-0.996c0-0.607,1.968,0.82,1.968,0.938c0,1.058,1.724-0.941,1.724-1.721c0-0.3,2.002,0.755,2.002,1.311
		c0-1.008,2.07,0.092,1.811-0.778c0.084,0.343,2,0.572,1.896,0.064c0.152,0.199,1.569-0.611,1.835-0.105
		c-0.417-1.605,1.437-0.602,1.936,0.261c0.047-0.323,1.713-0.619,1.827-0.605c-0.345-0.296,2.138-0.659,1.819-0.674
		c0.128-0.094,1.884-0.634,1.869-0.578c0.029,0.717,0.361,1.118,0.733,1.297v-36.526H304.221z"/>
	<path style="fill:#FFFFFF;" d="M289.106,119.911V91.226H155.419v34.356c0.648-0.763,1.766-0.114,1.921,0.494
		c-0.386-0.857,2.256-1.498,1.998-0.298c0.12,1.168,2.111,0.123,1.988-0.417c0.383,0.078,1.77,0.139,1.982-0.352
		c-0.17,1.087,2.099-0.453,1.907-1.254c0.341,0.375,1.821,0.311,1.977,0.06c-0.255,1.165,2.111,1.238,2.111,0.314
		c0,0.31,2.375-1.71,2.375-1.296c0,0.001,2.174,0.988,2.174,1.567c0,1.052,2.601,0.294,2.601-0.016c0-0.11,2.284,1.203,2.284,0.896
		c0-0.631,1.298,2.624,1.298,2.449c0,0.702,2.081-1.735,2.081-0.894c0-0.874,2.164,1.109,2.164,1.24c0-0.38,1.954-0.876,1.954-0.594
		c0-0.417,1.487-1.432,1.487-2.144c0,0.967,2.083,0.085,2.083-0.141c0-1.047,1.876-1.132,1.876-0.838
		c0,1.065,2.417,0.44,2.417,0.982c0-0.075,1.582-1.322,1.582-1.825c0,0.049,2.084-0.58,2.084-0.137c0,0.033,2.228-0.619,2.228,0.346
		c0,0.582,1.388-1.722,1.388-2.475c0,0.304,2.175,0.063,2.175,0.312c0,0.539,2.238-0.651,2.238-0.807
		c0,0.893,1.189,2.412,1.189,2.13c0-0.045,2.008-0.609,2.008,0.183c0-0.299,1.639,0.587,1.639,1.391c0-0.746,1.99,0.308,1.99-0.182
		c0,1.02,1.518-3.198,1.518-1.776c0-0.048,2.101,0.682,2.101,0.64c0,0.513,1.652-2.081,1.652-1.518c0,0.507,2.225,1.605,2.225,1.396
		c0,0.143,1.676-3.003,1.676-2.06c0,1.312,1.988-0.848,1.988,0.137c0-0.343,1.968,0.775,1.968,0.108
		c0,0.216,1.983,0.742,1.983,0.421c0,0.563,2.122-1.843,2.122-1.071c0-0.567,2.163-0.654,2.163-0.5c0-0.577,2.293,1.1,2.293,1.326
		c0-0.069,2.177-1.391,2.177-0.304c0,0.79,2.141-1.554,2.141-0.8c0,0.347,2.259,1.994,2.259,0.858c0,1.638,2.065-1.438,2.065-1.876
		c0-0.795,2.107,0.335,2.107,0.804c0-1.018,2.077-1.362,2.077,0.436c0,0.706,1.984-1.145,1.984-1.033
		c0,0.019,2.079,0.145,2.079,0.608c0,0.058,2.032,0.799,2.032-0.225c0,0.543,2.015-0.714,2.015-1.407
		c0-0.025,2.064,1.26,2.064,1.049c0,0.662,2.025,0.259,2.025,0.821c0-0.71,2.033-0.026,2.033-0.135c0-0.697,2.038-0.656,2.038-0.062
		c0-0.561,2.001-0.373,2.001,0.383c0,0.329,2.099-1.198,2.099-0.395c0,0.186,2.001-0.73,2.001,0.459
		c0,0.092,2.092,0.272,2.092-0.074c0,0.091,2.016-0.013,2.016,0.336c0-2.147,2.098,0.095,2.098-0.401
		c0,0.406,1.887,1.959,1.887,1.809c0,1.345,1.964-0.981,2.164-1.619c0.03-1.189,2.787,1.365,2.19,1.456
		c0.416-0.302,1.531,0.087,2.109-0.585c-0.504,0.065,1.876-1.186,2.002-0.928c0.359-0.452,2.077,0.149,2.119-0.265
		C287.98,120.161,288.518,120.005,289.106,119.911z"/>
	<path style="fill:#FFFFFF;" d="M9.817,257.504v-32.469h133.686v26.798c-0.648,0.763-1.766,0.114-1.921-0.494
		c0.386,0.857-2.256,1.498-1.998,0.298c-0.12-1.168-2.11-0.123-1.988,0.417c-0.383-0.078-1.77-0.139-1.982,0.352
		c0.17-1.086-2.099,0.453-1.907,1.255c-0.341-0.375-1.821-0.311-1.977-0.06c0.255-1.165-2.111-1.238-2.111-0.314
		c0-0.31-2.375,1.71-2.375,1.296c0-0.001-2.174-0.988-2.174-1.568c0-1.052-2.601-0.294-2.601,0.016c0,0.11-2.284-1.203-2.284-0.896
		c0,0.631-1.298-2.624-1.298-2.449c0-0.702-2.081,1.735-2.081,0.894c0,0.874-2.164-1.109-2.164-1.24
		c0,0.379-1.954,0.876-1.954,0.594c0,0.417-1.487,1.432-1.487,2.144c0-0.967-2.083-0.085-2.083,0.141
		c0,1.047-1.876,1.133-1.876,0.838c0-1.065-2.417-0.44-2.417-0.982c0,0.075-1.582,1.322-1.582,1.824c0-0.049-2.084,0.58-2.084,0.137
		c0-0.033-2.228,0.619-2.228-0.346c0-0.582-1.388,1.722-1.388,2.475c0-0.304-2.175-0.063-2.175-0.312
		c0-0.539-2.238,0.651-2.238,0.807c0-0.893-1.189-2.412-1.189-2.13c0,0.045-2.008,0.609-2.008-0.183
		c0,0.299-1.639-0.587-1.639-1.391c0,0.746-1.99-0.308-1.99,0.182c0-1.02-1.518,3.198-1.518,1.775c0,0.048-2.101-0.682-2.101-0.64
		c0-0.513-1.652,2.08-1.652,1.518c0-0.507-2.225-1.605-2.225-1.396c0-0.143-1.676,3.003-1.676,2.06c0-1.312-1.988,0.848-1.988-0.137
		c0,0.343-1.968-0.776-1.968-0.108c0-0.216-1.983-0.742-1.983-0.421c0-0.563-2.122,1.843-2.122,1.071c0,0.567-2.163,0.654-2.163,0.5
		c0,0.577-2.293-1.1-2.293-1.326c0,0.069-2.177,1.391-2.177,0.304c0-0.79-2.141,1.554-2.141,0.8c0-0.347-2.259-1.994-2.259-0.858
		c0-1.638-2.065,1.438-2.065,1.876c0,0.795-2.107-0.335-2.107-0.804c0,1.018-2.077,1.362-2.077-0.436
		c0-0.706-1.984,1.145-1.984,1.033c0-0.019-2.079-0.145-2.079-0.608c0-0.058-2.032-0.799-2.032,0.225
		c0-0.543-2.015,0.714-2.015,1.407c0,0.025-2.064-1.26-2.064-1.049c0-0.662-2.026-0.259-2.026-0.821c0,0.71-2.033,0.026-2.033,0.135
		c0,0.697-2.038,0.656-2.038,0.062c0,0.561-2.001,0.373-2.001-0.383c0-0.329-2.099,1.198-2.099,0.395
		c0-0.186-2.001,0.73-2.001-0.458c0-0.092-2.092-0.272-2.092,0.074c0-0.091-2.016,0.013-2.016-0.336
		c0,2.147-2.098-0.095-2.098,0.401c0-0.406-1.887-1.959-1.887-1.809c0-1.345-1.964,0.981-2.164,1.619
		c-0.03,1.189-2.787-1.365-2.19-1.456c-0.416,0.302-1.531-0.087-2.11,0.585c0.504-0.065-1.877,1.186-2.002,0.928
		c-0.359,0.452-2.077-0.15-2.119,0.265C10.942,257.254,10.405,257.41,9.817,257.504z"/>
	<polygon style="fill:#FFFFFF;" points="141.604,158.063 10.13,158.063 10.13,192.034 10.809,192.48 12.62,192.137 14.057,190.773 
		15.895,190.438 17.55,189.943 19.314,190.998 20.929,190.584 22.611,189.807 24.202,190.967 25.875,190.412 27.506,190.287 
		29.149,190.363 30.556,189.551 32.185,189.651 33.618,188.776 35.322,189.922 36.831,189.407 38.631,189.396 40.221,190.193 
		41.485,191.451 43.142,191.992 44.85,192.478 46.631,192.545 48.419,192.272 50.24,191.965 52.043,192.647 53.692,191.8 
		55.561,192.171 57.189,191.413 58.806,190.689 60.464,190.117 62.125,189.535 63.831,189.086 65.767,189.755 67.389,189.013 
		68.935,188.439 70.56,188.409 72.104,187.819 73.747,187.961 75.343,187.744 76.969,188.335 78.532,188.134 80.133,187.882 
		81.804,188.617 83.691,189.025 85.31,190.087 87.239,189.533 88.917,191.113 90.735,190.881 92.411,190.505 93.995,190.976 
		95.65,190.389 97.26,190.27 98.861,190.52 100.484,191.163 102.133,191.678 103.685,190.43 105.365,191.113 107.016,191.23 
		108.548,190.367 110.058,189.508 111.835,190.393 113.489,190.394 114.604,188.346 116.308,188.625 117.94,189.43 119.4,189.158 
		121.175,188.541 122.426,190 123.87,190.856 125.726,190.703 127.086,191.801 129.002,191.387 130.296,192.781 131.941,193.12 
		133.665,192.883 135.271,193.437 136.992,193.05 138.759,193.448 140.491,193.642 141.604,193.499 141.604,160.66 141.6,160.645 
		141.604,160.632 	"/>
	<polygon style="fill:#FFFFFF;" points="156.092,158.059 156.092,196.524 156.368,196.561 157.762,196.339 159.161,196.354 
		160.516,196.064 162.215,196.441 162.941,194.985 164.17,195.011 165.724,195.187 167.493,194.995 169.05,194.653 170.53,194.936 
		172.061,194.602 173.492,195.738 175.045,194.753 176.525,195.338 178.023,195.94 179.537,196.142 181.044,195.826 
		182.514,194.755 184.033,195.153 185.573,195.707 187.071,195.489 188.608,195.745 189.959,195.001 191.374,194.985 
		192.798,194.491 194.181,194.515 195.585,194.729 196.955,194.472 197.731,193.431 198.651,192.6 199.774,191.789 201.691,192.216 
		203.148,191.716 204.594,190.565 206.028,190.23 207.552,190.285 208.665,189.573 209.765,188.908 210.995,188.639 
		212.673,188.375 214.166,187.659 215.586,186.827 217.136,186.045 218.656,186.969 220.043,186.448 221.486,186.712 
		222.897,186.481 224.314,186.814 225.775,185.626 227.145,186.513 228.56,186.594 230.232,188.191 232.047,187.094 
		233.779,187.934 235.044,187.36 236.331,187.249 237.65,187.925 238.893,187.907 240.411,187.608 242.16,187.217 243.579,187.993 
		244.923,188.817 246.24,189.63 247.081,191.196 248.494,191.869 250.236,191.658 251.302,193.023 252.766,193.11 254.247,192.768 
		255.608,193.696 257.061,193.173 258.495,193.961 259.916,193.317 261.345,193.287 262.794,193.721 264.209,193.475 
		265.605,192.648 267.043,193.665 268.431,193.62 269.82,192.462 271.211,193.161 272.598,192.714 273.98,192.288 275.399,193.654 
		276.791,193.406 278.151,192.677 279.53,192.529 281.096,192.551 282.515,191.916 284.11,191.827 285.386,190.792 286.777,190.468 
		288.204,191.014 289.382,190.987 289.382,158.059 	"/>
	<polygon style="fill:#FFFFFF;" points="300.872,91.301 300.872,115.62 302.145,115.785 303.262,114.351 305.226,114.47 
		305.789,112.894 306.607,111.42 308.062,111.802 309.319,110.723 310.547,111.691 311.954,112.005 313.24,111.305 314.568,110.779 
		316.069,111.233 317.446,111.073 318.737,110.139 320.132,109.919 321.547,110.138 322.954,109.868 324.405,109.435 
		325.884,109.903 327.375,110.22 328.862,110.552 330.458,110.009 331.975,110.246 333.49,110.542 334.896,111.274 336.284,111.94 
		337.54,112.447 338.895,112.759 339.731,114.138 341.323,113.543 342.483,114.38 343.834,115.124 345.45,114.235 346.937,114.519 
		347.781,116.33 349.192,116.629 350.527,117.23 351.462,118.423 352.975,118.796 354.396,118.957 355.57,120.199 357.015,120.832 
		358.523,120.078 359.969,120.32 361.461,120.568 362.604,121.535 363.515,122.853 365.241,122.582 366.195,123.923 
		367.742,123.924 369.166,124.192 370.506,124.733 371.968,124.795 373.12,126.373 374.792,125.268 376.059,126.592 
		377.619,125.783 379.043,126.015 380.418,127.055 381.926,126.14 383.353,126.64 384.802,126.739 386.259,126.248 387.704,127.132 
		389.157,126.661 390.612,127.174 392.057,126.169 393.51,126.31 394.913,126.899 396.327,127.258 397.699,126.569 399.071,126.205 
		400.526,126.795 401.809,125.72 403.348,126.63 404.701,126.172 406.098,125.959 407.201,124.619 408.66,124.37 410.297,125.067 
		411.716,124.824 413.172,124.843 414.486,123.641 415.958,123.697 417.449,124.177 418.853,123.258 420.326,123.626 
		421.775,123.436 421.996,123.385 421.996,91.301 	"/>
	<polygon style="fill:#FFFFFF;" points="301.628,158.238 301.628,189.505 301.826,189.658 303.324,189.691 304.703,188.668 
		306.289,189.537 307.683,189.12 308.949,187.887 310.576,188.656 312.082,188.635 313.631,188.286 315.088,189.003 316.56,189.448 
		318.158,189.084 319.694,189.132 321.315,189.949 323.002,189.878 324.609,188.962 326.159,188.89 327.635,189.299 
		328.807,190.372 330.278,190.281 331.655,190.689 333.072,190.881 334.496,191.003 335.937,190.696 337.34,191.168 
		338.724,191.569 340.29,191.333 341.848,191.138 343.401,190.899 344.922,190.992 346.434,191.25 347.949,191.662 349.398,191.585 
		350.828,191.246 352.291,191.271 353.785,191.45 355.138,190.469 356.735,191.591 358.098,190.454 359.682,191.192 360.76,189.563 
		362.605,190.359 363.353,188.505 365.081,188.664 366.337,187.911 367.269,186.602 368.586,185.936 370.143,185.778 
		371.242,184.54 372.796,184.5 374.221,183.856 375.664,183.786 377.337,184.6 378.798,184.267 380.052,183.227 381.307,182.201 
		382.893,182.406 384.481,182.823 385.786,181.73 387.323,182.474 388.845,181.302 390.379,182.037 391.93,182.075 393.592,181.399 
		395.096,182.043 396.295,183.451 397.499,184.011 398.695,184.931 397.605,186.113 398.799,186.653 400.211,186.67 
		401.544,187.016 402.602,188.737 404.418,187.731 405.389,189.065 407.006,189.008 408.194,189.667 409.455,190.042 
		410.729,190.809 412.104,190.434 413.417,190.723 414.747,190.63 416.082,191.262 417.749,190.989 419.402,190.72 421.004,191.111 
		423.014,190.921 423.713,191.348 423.713,158.238 	"/>
	<polygon style="fill:#FFFFFF;" points="419.257,28.252 419.257,49.855 419.01,49.822 417.76,50.02 416.507,50.007 415.293,50.267 
		413.77,49.929 413.119,51.234 412.018,51.21 410.625,51.053 409.04,51.225 407.644,51.531 406.319,51.278 404.946,51.577 
		403.664,50.559 402.273,51.442 400.946,50.917 399.603,50.378 398.247,50.197 396.896,50.48 395.579,51.44 394.218,51.083 
		392.838,50.587 391.495,50.783 390.118,50.553 388.907,51.22 387.639,51.234 386.363,51.677 385.124,51.655 383.866,51.464 
		382.638,51.694 381.942,52.627 381.118,53.371 380.112,54.098 378.393,53.715 377.087,54.164 375.792,55.195 374.507,55.495 
		373.141,55.446 372.144,56.084 371.158,56.68 370.055,56.921 368.551,57.158 367.214,57.799 365.941,58.545 364.552,59.245 
		363.19,58.417 361.947,58.884 360.654,58.648 359.389,58.855 358.12,58.556 356.81,59.621 355.583,58.826 354.314,58.754 
		352.816,57.323 351.189,58.305 349.638,57.552 348.504,58.067 347.35,58.166 346.169,57.561 345.054,57.577 343.694,57.845 
		342.127,58.195 340.855,57.5 339.651,56.762 338.47,56.033 337.717,54.629 336.451,54.026 334.889,54.215 333.935,52.992 
		332.623,52.914 331.295,53.221 330.076,52.389 328.773,52.857 327.488,52.151 326.215,52.729 324.935,52.755 323.635,52.367 
		322.368,52.587 321.117,53.328 319.828,52.417 318.584,52.457 317.339,53.495 316.093,52.869 314.85,53.269 313.612,53.651 
		312.34,52.426 311.092,52.649 309.874,53.302 308.637,53.435 307.234,53.415 305.963,53.984 304.533,54.064 303.389,54.991 
		302.143,55.282 300.865,54.793 299.809,54.817 299.809,28.252 	"/>
	<polygon style="fill:#FFFFFF;" points="9.785,28.252 9.785,50.926 10.555,51.396 12.765,51.186 14.528,51.616 16.347,51.32 
		18.18,51.021 19.648,51.716 21.111,51.613 22.556,51.931 24.069,51.519 25.47,52.362 26.857,52.776 28.164,53.5 29.942,53.437 
		31.011,54.904 33.008,53.798 34.173,55.692 35.639,56.072 37.192,56.091 38.505,56.685 37.307,57.985 38.622,58.997 39.946,59.612 
		41.265,61.162 42.92,61.87 44.748,61.127 46.454,61.168 48.141,61.977 49.815,60.687 51.507,61.506 52.942,60.304 54.689,60.762 
		56.433,60.988 57.814,59.86 59.194,58.715 60.801,58.349 62.642,59.244 64.228,59.167 65.796,58.459 67.505,58.415 68.715,57.054 
		70.427,56.88 71.877,56.147 72.901,54.707 74.283,53.878 76.185,54.053 77.006,52.014 79.036,52.889 80.222,51.097 81.964,51.91 
		83.464,50.658 85.221,51.893 86.709,50.814 88.353,51.01 89.963,51.038 91.535,50.665 93.129,50.581 94.796,51.034 96.459,51.317 
		98.132,51.42 99.841,51.157 101.554,50.942 103.277,50.682 104.799,51.124 106.343,51.643 107.928,51.305 109.494,51.439 
		111.052,51.651 112.567,52.099 114.185,52 115.475,53.179 117.098,53.63 118.803,53.55 120.572,52.543 122.428,52.465 
		124.21,53.364 125.9,53.417 127.658,53.016 129.278,53.505 130.88,54.294 132.585,53.91 134.241,53.887 136.03,54.733 
		137.424,53.377 138.957,52.918 140.702,53.874 142.218,52.748 143.866,52.785 144.085,52.953 144.085,28.252 	"/>
</g>
</svg>
